<svg width="37" height="37" viewBox="0 0 37 37" fill="none" xmlns="http://www.w3.org/2000/svg">
<path d="M37 37L37 18.5C37 8.28274 28.7173 1.41726e-05 18.5 1.28328e-05C8.28274 1.1493e-05 1.13952e-05 8.28274 1.00554e-05 18.5L7.62939e-06 37L37 37Z" fill="#7A5AF8"/>
<path d="M7.78921 37C7.78921 30.9055 12.7298 25.9649 18.8243 25.9649C24.9188 25.9649 29.8594 30.9055 29.8594 37L7.78921 37Z" fill="#FFC107"/>
<path d="M18.5 22.0702C21.5473 22.0702 24.0176 19.5999 24.0176 16.5526C24.0176 13.5054 21.5473 11.0351 18.5 11.0351C15.4528 11.0351 12.9825 13.5054 12.9825 16.5526C12.9825 19.5999 15.4528 22.0702 18.5 22.0702Z" fill="#FAFAFF"/>
</svg>
